<?xml version="1.0" encoding="utf-8"?>
<!-- Generator: Adobe Illustrator 26.1.0, SVG Export Plug-In . SVG Version: 6.00 Build 0)  -->
<svg version="1.1" id="Layer_1" xmlns="http://www.w3.org/2000/svg" xmlns:xlink="http://www.w3.org/1999/xlink" x="0px" y="0px"
	 viewBox="0 0 1920.2 1054.9" style="enable-background:new 0 0 1920.2 1054.9;" xml:space="preserve">
<style type="text/css">
	.st0{opacity:0.11;fill:url(#Path_195_00000019637632016692885400000006526218558722310846_);enable-background:new    ;}
	.st1{fill:url(#Path_194_00000016782532452083312380000000164972952666956713_);}
</style>
<g id="Group_111" transform="translate(0.13 -6328.591)">
	
		<linearGradient id="Path_195_00000100341399868386571650000017297862454583193997_" gradientUnits="userSpaceOnUse" x1="0.24" y1="1.0228" x2="0.24" y2="2.279069e-02" gradientTransform="matrix(1920.193 0 0 1054.854 499.1202 6304.5581)">
		<stop  offset="0" style="stop-color:#361CC1"/>
		<stop  offset="1" style="stop-color:#2E82EF"/>
	</linearGradient>
	
		<path id="Path_195" style="opacity:0.11;fill:url(#Path_195_00000100341399868386571650000017297862454583193997_);enable-background:new    ;" d="
		M1920.1,7003.8c0,0-85.9-337.8-386.7-270.2c-300.8,67.5-439.4,0-538.3-145.2s-352-127-574.6-79.2s-302.4-21.5-420.6-180.6L0,7383.5
		h1920L1920.1,7003.8z"/>
	
		<linearGradient id="Path_194_00000072965323175021005870000007054215301798239111_" gradientUnits="userSpaceOnUse" x1="0.2401" y1="1.0229" x2="0.2401" y2="2.295895e-02" gradientTransform="matrix(1920.062 0 0 1054.71 499.1852 6304.4854)">
		<stop  offset="8.073434e-08" style="stop-color:#3841E7"/>
		<stop  offset="1" style="stop-color:#6A14E8"/>
	</linearGradient>
	<path id="Path_194" style="fill:url(#Path_194_00000072965323175021005870000007054215301798239111_);" d="M1920,7003.9
		c0,0-86.3-291.5-385.9-226.4s-437.7,0-536.1-139.9c-98.5-139.9-348.5-144.6-576.5-88.3c-228,56.3-380-116.5-421.4-220.6
		c0.1,8,0,1054.7,0,1054.7h1920L1920,7003.9z"/>
</g>
</svg>
