<?xml version="1.0" standalone="no"?>
<!DOCTYPE svg PUBLIC "-//W3C//DTD SVG 20010904//EN"
 "http://www.w3.org/TR/2001/REC-SVG-20010904/DTD/svg10.dtd">
<svg version="1.0" xmlns="http://www.w3.org/2000/svg"
 width="300.000000pt" height="89.000000pt" viewBox="0 0 300.000000 89.000000"
 preserveAspectRatio="xMidYMid meet">

<g transform="translate(0.000000,89.000000) scale(0.100000,-0.100000)"
fill="#000000" stroke="none">
<path d="M435 770 c-9 -15 4 -30 26 -30 12 0 19 7 19 20 0 21 -33 29 -45 10z"/>
<path d="M1484 589 c-53 -15 -78 -52 -82 -122 -6 -112 39 -160 149 -160 75 0
119 25 137 79 17 49 9 130 -16 164 -32 43 -115 60 -188 39z m94 -71 c18 -18
15 -113 -4 -132 -37 -37 -64 -10 -64 64 0 57 11 80 40 80 9 0 21 -5 28 -12z"/>
<path d="M2510 593 c-33 -12 -50 -37 -50 -73 0 -45 19 -64 80 -80 106 -27 91
-100 -21 -100 -46 0 -59 -3 -59 -15 0 -12 14 -15 70 -15 85 0 110 18 110 79 0
49 -16 66 -80 81 -57 14 -77 38 -60 70 9 17 21 20 75 20 48 0 65 4 65 14 0 18
-94 32 -130 19z"/>
<path d="M270 583 c0 -4 18 -66 39 -138 l38 -130 109 -3 110 -3 40 141 41 140
-53 0 -53 0 -20 -67 c-11 -38 -27 -95 -36 -128 -10 -33 -21 -64 -25 -68 -4 -5
-16 17 -25 50 -9 32 -27 92 -39 133 l-22 75 -52 3 c-29 2 -52 -1 -52 -5z"/>
<path d="M680 450 l0 -140 55 0 55 0 0 140 0 140 -55 0 -55 0 0 -140z"/>
<path d="M830 450 l0 -140 91 0 c137 0 175 24 186 119 7 65 -11 118 -51 142
-25 15 -50 19 -128 19 l-98 0 0 -140z m151 70 c25 -14 28 -110 3 -135 -32 -32
-49 -15 -52 54 -4 91 4 105 49 81z"/>
<path d="M1140 450 l0 -140 120 0 120 0 0 30 c0 29 -1 29 -62 32 -55 3 -63 5
-63 23 0 17 8 20 48 23 45 3 47 5 47 32 0 27 -2 29 -47 32 -41 3 -48 6 -51 26
-3 21 0 22 62 22 l66 0 0 30 0 30 -120 0 -120 0 0 -140z"/>
<path d="M1724 573 c4 -9 21 -72 38 -140 l30 -123 39 0 c36 0 39 2 48 38 5 20
21 81 35 135 14 55 26 101 26 103 0 2 -9 4 -19 4 -17 0 -24 -18 -46 -117 -39
-167 -48 -172 -79 -35 -34 149 -35 152 -57 152 -16 0 -19 -4 -15 -17z"/>
<path d="M1990 450 l0 -140 85 0 c69 0 85 3 85 15 0 12 -15 15 -71 15 l-70 0
3 48 3 47 58 3 c42 2 57 7 57 17 0 12 -14 15 -60 15 l-60 0 0 45 0 45 70 0
c56 0 70 3 70 15 0 12 -16 15 -85 15 l-85 0 0 -140z"/>
<path d="M2220 450 c0 -116 3 -140 14 -140 11 0 16 15 18 53 l3 52 35 0 c32 0
37 -4 60 -52 16 -34 31 -53 43 -53 22 0 22 10 -4 63 l-22 44 22 22 c11 11 21
31 22 44 4 89 -15 107 -117 107 l-74 0 0 -140z m149 78 c12 -21 13 -31 3 -52
-10 -23 -17 -26 -67 -26 l-55 0 0 56 0 55 52 -3 c45 -3 55 -7 67 -30z"/>
<path d="M2700 450 l0 -140 85 0 c68 0 85 3 85 15 0 11 -16 15 -67 17 l-68 3
0 45 0 45 58 3 c42 2 57 7 57 17 0 12 -14 15 -60 15 l-60 0 0 45 0 45 70 0
c56 0 70 3 70 15 0 12 -16 15 -85 15 l-85 0 0 -140z"/>
<path d="M138 454 c3 -17 8 -22 15 -15 11 11 3 41 -11 41 -5 0 -7 -12 -4 -26z"/>
<path d="M190 270 c8 -5 12 -10 7 -10 -4 0 11 -16 33 -36 22 -20 40 -44 40
-53 0 -12 2 -13 8 -3 7 10 15 8 35 -8 15 -12 27 -18 27 -14 0 5 5 3 11 -3 6
-6 18 -9 26 -6 11 4 5 10 -18 21 -19 8 -41 16 -49 18 -8 2 -23 13 -32 25 -10
11 -18 18 -18 14 0 -5 -9 0 -20 10 -11 10 -20 24 -20 30 0 7 -7 16 -16 19 -24
9 -31 7 -14 -4z"/>
<path d="M677 234 c-29 -35 -22 -57 8 -24 10 11 15 20 10 20 -4 0 -2 7 5 15 7
9 11 17 9 19 -2 1 -17 -12 -32 -30z"/>
<path d="M626 198 c-5 -19 -8 -21 -17 -8 -9 13 -10 12 -5 -2 3 -12 0 -18 -9
-19 -15 -1 -28 -4 -42 -9 -5 -1 -11 -2 -15 -1 -5 0 -8 -3 -8 -7 0 -18 14 -21
40 -7 15 8 29 13 31 12 11 -8 47 40 40 52 -6 9 -10 6 -15 -11z"/>
<path d="M427 146 c-15 -6 -27 -16 -27 -24 0 -12 3 -12 15 -2 9 8 30 11 55 7
49 -6 60 5 17 19 -21 6 -42 6 -60 0z"/>
</g>
</svg>
